<svg xmlns="http://www.w3.org/2000/svg" width="187.5" viewBox="0 0 187.5 75" height="75" version="1.0"><path fill="#9CA3AF" d="M 59.628906 19.652344 C 54.082031 11.617188 44.160156 5.320312 37.039062 5.320312 C 36.941406 5.320312 36.84375 5.335938 36.75 5.359375 C 36.65625 5.335938 36.558594 5.320312 36.460938 5.320312 C 29.339844 5.320312 19.417969 11.617188 13.871094 19.652344 C 9.25 26.34375 8.039062 33.542969 10.457031 39.917969 C 16.878906 56.84375 34.996094 70.570312 35.765625 71.148438 C 35.972656 71.304688 36.21875 71.378906 36.457031 71.378906 C 36.558594 71.378906 36.65625 71.363281 36.75 71.339844 C 36.84375 71.363281 36.941406 71.378906 37.042969 71.378906 C 37.285156 71.378906 37.527344 71.304688 37.734375 71.148438 C 38.503906 70.570312 56.621094 56.84375 63.042969 39.917969 C 65.460938 33.542969 64.25 26.34375 59.628906 19.652344 Z M 60.875 39.097656 C 55.207031 54.042969 39.449219 66.863281 36.75 68.980469 C 34.050781 66.863281 18.300781 54.054688 12.625 39.097656 C 9.882812 31.863281 12.824219 25.246094 15.777344 20.96875 C 20.851562 13.617188 30.128906 7.636719 36.460938 7.636719 C 36.558594 7.636719 36.65625 7.621094 36.75 7.597656 C 36.84375 7.621094 36.9375 7.636719 37.039062 7.636719 C 43.371094 7.636719 52.648438 13.617188 57.722656 20.96875 C 60.675781 25.246094 63.617188 31.863281 60.875 39.097656 Z M 60.875 39.097656"/><path fill="#9CA3AF" d="M 52.035156 33.632812 C 51.6875 33.632812 51.402344 33.359375 51.386719 33.007812 C 51.316406 31.351562 49.960938 30.050781 48.300781 30.050781 C 46.644531 30.050781 45.289062 31.351562 45.21875 33.007812 C 45.203125 33.367188 44.894531 33.652344 44.539062 33.628906 C 44.179688 33.613281 43.902344 33.3125 43.917969 32.953125 C 44.019531 30.59375 45.945312 28.75 48.300781 28.75 C 50.660156 28.75 52.585938 30.59375 52.6875 32.953125 C 52.703125 33.3125 52.421875 33.613281 52.0625 33.628906 C 52.054688 33.632812 52.046875 33.632812 52.035156 33.632812 Z M 52.035156 33.632812"/><path fill="#9CA3AF" d="M 63.601562 30.925781 C 63.476562 30.785156 63.296875 30.703125 63.109375 30.703125 L 58.554688 30.703125 C 58.296875 30.703125 58.066406 30.851562 57.960938 31.082031 L 57.148438 32.867188 L 55.121094 23.402344 C 54.769531 21.761719 53.460938 20.613281 51.9375 20.613281 L 49.117188 20.613281 L 49.117188 19.3125 C 49.117188 18.953125 48.824219 18.660156 48.464844 18.660156 C 48.105469 18.660156 47.8125 18.953125 47.8125 19.3125 L 47.8125 20.613281 L 22.109375 20.613281 C 20.660156 20.613281 19.371094 21.6875 18.964844 23.226562 L 16.410156 32.996094 L 15.539062 31.082031 C 15.433594 30.851562 15.203125 30.703125 14.945312 30.703125 L 10.390625 30.703125 C 10.203125 30.703125 10.023438 30.785156 9.898438 30.925781 C 9.777344 31.070312 9.71875 31.257812 9.746094 31.445312 L 10.722656 38.277344 C 10.769531 38.601562 11.042969 38.835938 11.367188 38.835938 L 62.132812 38.835938 C 62.457031 38.835938 62.730469 38.601562 62.777344 38.277344 L 63.753906 31.445312 C 63.78125 31.257812 63.722656 31.070312 63.601562 30.925781 Z M 17.226562 35.582031 L 56.273438 35.582031 L 56.273438 37.535156 L 17.226562 37.535156 Z M 20.226562 23.558594 C 20.480469 22.589844 21.253906 21.917969 22.109375 21.917969 L 51.9375 21.917969 C 52.839844 21.917969 53.625 22.640625 53.847656 23.675781 L 56.121094 34.28125 L 17.417969 34.28125 Z M 11.140625 32.003906 L 14.527344 32.003906 L 15.921875 35.074219 L 15.921875 37.535156 L 11.933594 37.535156 Z M 61.566406 37.535156 L 57.578125 37.535156 L 57.578125 35.074219 L 58.972656 32.003906 L 62.359375 32.003906 Z M 61.566406 37.535156"/><path fill="#F87171" d="M 26.175781 53.171875 L 26.175781 55.273438 C 26.660156 55.84375 27.15625 56.402344 27.652344 56.945312 L 27.652344 53.304688 Z M 26.175781 53.171875"/><path fill="#F87171" d="M 40.273438 41.4375 C 40.300781 41.464844 40.320312 41.496094 40.335938 41.53125 L 43.265625 48.367188 L 54.324219 43.480469 L 54.324219 40.789062 L 39.667969 40.789062 Z M 40.273438 41.4375"/><path fill="#F87171" d="M 27.308594 50.3125 C 27.308594 50.40625 27.269531 50.496094 27.199219 50.558594 L 26.175781 51.453125 L 26.175781 52.519531 L 27.652344 52.652344 L 27.652344 48.59375 L 27.308594 48.21875 Z M 27.308594 50.3125"/><path fill="#F87171" d="M 25.523438 54.496094 L 25.523438 53.113281 L 24.34375 53.007812 C 24.464844 53.164062 24.585938 53.324219 24.710938 53.480469 C 24.976562 53.824219 25.25 54.160156 25.523438 54.496094 Z M 25.523438 54.496094"/><path fill="#F87171" d="M 25.523438 51.304688 C 25.523438 51.210938 25.566406 51.121094 25.636719 51.0625 L 26.660156 50.164062 L 26.660156 45.488281 C 26.660156 45.464844 26.660156 45.4375 26.667969 45.410156 L 27.796875 40.789062 L 25.90625 40.789062 L 24.046875 43.050781 L 24.046875 52.328125 L 25.523438 52.460938 Z M 25.523438 51.304688"/><path fill="#F87171" d="M 23.035156 40.789062 L 23.792969 42.339844 L 25.066406 40.789062 Z M 23.035156 40.789062"/><path fill="#F87171" d="M 39.195312 42.410156 L 37.640625 40.789062 L 28.46875 40.789062 L 27.308594 45.527344 L 27.308594 47.253906 L 28.21875 48.25 C 28.273438 48.308594 28.300781 48.386719 28.300781 48.46875 L 28.300781 52.613281 L 35.125 51.273438 L 42.011719 48.851562 Z M 39.195312 42.410156"/><path fill="#F87171" d="M 43.742188 49.484375 L 45.015625 52.453125 C 45.035156 52.496094 45.042969 52.539062 45.042969 52.582031 L 45.042969 55.988281 C 45.042969 56.019531 45.039062 56.054688 45.027344 56.085938 L 44.207031 58.6875 C 45.746094 57.101562 47.339844 55.332031 48.789062 53.480469 C 51.21875 50.378906 53.03125 47.667969 54.324219 45.554688 L 54.324219 44.761719 Z M 43.742188 49.484375"/><path fill="#F87171" d="M 54.972656 40.789062 L 54.972656 44.46875 C 56.332031 42.148438 56.925781 40.789062 56.925781 40.789062 Z M 54.972656 40.789062"/><path fill="#F87171" d="M 23.394531 44.589844 L 23.394531 43.011719 L 22.3125 40.789062 L 19.933594 40.789062 L 19.933594 44.507812 Z M 23.394531 44.589844"/><path fill="#F87171" d="M 32.457031 61.777344 C 34.925781 64.070312 36.75 65.523438 36.75 65.523438 C 36.75 65.523438 38.6875 63.980469 41.269531 61.5625 Z M 32.457031 61.777344"/><path fill="#F87171" d="M 19.28125 44.828125 L 19.28125 40.789062 L 16.574219 40.789062 C 16.574219 40.789062 17.386719 42.644531 19.28125 45.726562 Z M 19.28125 44.828125"/><path fill="#F87171" d="M 23.394531 51.761719 L 23.394531 45.238281 L 19.933594 45.160156 L 19.933594 46.765625 C 20.867188 48.222656 22.011719 49.90625 23.394531 51.761719 Z M 23.394531 51.761719"/><path fill="#F87171" d="M 42.128906 60.671875 L 43.675781 55.675781 L 43.125 51.394531 L 42.273438 49.449219 L 35.539062 51.820312 L 35.539062 61.050781 L 41.265625 60.910156 Z M 42.128906 60.671875"/><path fill="#F87171" d="M 34.886719 51.984375 L 28.300781 53.277344 L 28.300781 57.648438 C 29.5 58.925781 30.6875 60.105469 31.78125 61.140625 L 34.886719 61.066406 Z M 34.886719 51.984375"/><g fill="#9CA3AF"><g><g><path d="M 11.910156 -11.339844 L 11.910156 -14.742188 L 0.566406 -14.742188 L 0.566406 0 L 11.910156 0 L 11.910156 -3.402344 L 5.105469 -3.402344 L 5.105469 -11.339844 Z M 11.910156 -5.671875 L 11.910156 -9.074219 L 6.238281 -9.074219 L 6.238281 -5.671875 Z M 11.910156 -5.671875" transform="translate(70.663 49.452)"/></g></g></g><g fill="#9CA3AF"><g><g><path d="M 5.105469 0 L 5.105469 -5.671875 L 7.371094 -5.671875 L 7.371094 1.132812 L 11.910156 0 L 11.910156 -14.742188 L 0.566406 -14.742188 L 0.566406 0 Z M 7.371094 -9.074219 L 5.105469 -9.074219 L 5.105469 -11.339844 L 7.371094 -11.339844 Z M 7.371094 -9.074219" transform="translate(84.393 49.452)"/></g></g></g><g fill="#9CA3AF"><g><g><path d="M 11.910156 -11.339844 L 11.910156 -14.742188 L 0.566406 -14.742188 L 0.566406 -5.671875 L 7.371094 -5.671875 L 7.371094 -3.402344 L 5.105469 -3.402344 L 5.105469 -4.535156 L 0.566406 -3.402344 L 0.566406 0 L 11.910156 0 L 11.910156 -9.074219 L 5.105469 -9.074219 L 5.105469 -11.339844 L 7.371094 -11.339844 L 7.371094 -10.207031 Z M 11.910156 -11.339844" transform="translate(98.122 49.452)"/></g></g></g><g fill="#9CA3AF"><g><g><path d="M 11.910156 -14.742188 L 7.371094 -14.742188 L 7.371094 -9.074219 L 5.105469 -9.074219 L 5.105469 -14.742188 L 0.566406 -14.742188 L 0.566406 -5.671875 L 7.371094 -5.671875 L 7.371094 -3.96875 L 0.566406 -3.96875 L 0.566406 0 L 11.910156 0 Z M 11.910156 -14.742188" transform="translate(111.852 49.452)"/></g></g></g><g fill="#9CA3AF"><g><g><path d="M 11.910156 -10.207031 L 11.910156 -14.742188 L 0.566406 -14.742188 L 0.566406 0 L 11.910156 0 L 11.910156 -5.671875 L 7.371094 -4.535156 L 7.371094 -3.402344 L 5.105469 -3.402344 L 5.105469 -11.339844 L 7.371094 -11.339844 L 7.371094 -9.074219 Z M 11.910156 -10.207031" transform="translate(125.581 49.452)"/></g></g></g><g fill="#9CA3AF"><g><g><path d="M 5.105469 0 L 5.105469 -5.671875 L 7.371094 -5.671875 L 7.371094 1.132812 L 11.910156 0 L 11.910156 -14.742188 L 0.566406 -14.742188 L 0.566406 0 Z M 7.371094 -9.074219 L 5.105469 -9.074219 L 5.105469 -11.339844 L 7.371094 -11.339844 Z M 7.371094 -9.074219" transform="translate(139.31 49.452)"/></g></g></g><g fill="#9CA3AF"><g><g><path d="M 11.910156 0 L 11.910156 -7.371094 L 7.371094 -7.371094 L 11.910156 -8.507812 L 11.910156 -14.742188 L 0.566406 -14.742188 L 0.566406 0 L 5.105469 0 L 5.105469 -5.671875 L 7.371094 -5.671875 L 7.371094 1.132812 Z M 7.371094 -9.074219 L 5.105469 -9.074219 L 5.105469 -11.339844 L 7.371094 -11.339844 Z M 7.371094 -9.074219" transform="translate(153.04 49.452)"/></g></g></g><g fill="#9CA3AF"><g><g><path d="M 11.910156 -11.339844 L 11.910156 -14.742188 L 0.566406 -14.742188 L 0.566406 -5.671875 L 7.371094 -5.671875 L 7.371094 -3.402344 L 5.105469 -3.402344 L 5.105469 -4.535156 L 0.566406 -3.402344 L 0.566406 0 L 11.910156 0 L 11.910156 -9.074219 L 5.105469 -9.074219 L 5.105469 -11.339844 L 7.371094 -11.339844 L 7.371094 -10.207031 Z M 11.910156 -11.339844" transform="translate(166.77 49.452)"/></g></g></g></svg>