<svg xmlns="http://www.w3.org/2000/svg" width="187.5" viewBox="0 0 187.5 75" height="75" version="1.0"><path fill="#9CA3AF" d="M 59.628906 18.828125 C 54.082031 10.789062 44.160156 4.496094 37.039062 4.496094 C 36.941406 4.496094 36.84375 4.511719 36.75 4.535156 C 36.65625 4.511719 36.558594 4.496094 36.460938 4.496094 C 29.339844 4.496094 19.417969 10.789062 13.871094 18.828125 C 9.25 25.519531 8.039062 32.71875 10.457031 39.09375 C 16.878906 56.019531 34.996094 69.746094 35.765625 70.324219 C 35.972656 70.480469 36.21875 70.554688 36.457031 70.554688 C 36.558594 70.554688 36.65625 70.539062 36.75 70.515625 C 36.84375 70.539062 36.941406 70.554688 37.042969 70.554688 C 37.285156 70.554688 37.527344 70.480469 37.734375 70.324219 C 38.503906 69.746094 56.621094 56.019531 63.042969 39.09375 C 65.460938 32.71875 64.25 25.519531 59.628906 18.828125 Z M 60.875 38.273438 C 55.207031 53.21875 39.449219 66.039062 36.75 68.15625 C 34.050781 66.039062 18.300781 53.230469 12.625 38.273438 C 9.882812 31.039062 12.824219 24.421875 15.777344 20.144531 C 20.851562 12.792969 30.128906 6.8125 36.460938 6.8125 C 36.558594 6.8125 36.65625 6.796875 36.75 6.769531 C 36.84375 6.796875 36.9375 6.8125 37.039062 6.8125 C 43.371094 6.8125 52.648438 12.792969 57.722656 20.144531 C 60.675781 24.421875 63.617188 31.039062 60.875 38.273438 Z M 60.875 38.273438"/><path fill="#9CA3AF" d="M 52.035156 32.804688 C 51.6875 32.804688 51.402344 32.53125 51.386719 32.183594 C 51.316406 30.527344 49.960938 29.226562 48.300781 29.226562 C 46.644531 29.226562 45.289062 30.527344 45.21875 32.183594 C 45.203125 32.542969 44.894531 32.824219 44.539062 32.804688 C 44.179688 32.789062 43.902344 32.488281 43.917969 32.128906 C 44.019531 29.769531 45.945312 27.925781 48.300781 27.925781 C 50.660156 27.925781 52.585938 29.769531 52.6875 32.128906 C 52.703125 32.484375 52.421875 32.789062 52.0625 32.804688 C 52.054688 32.804688 52.046875 32.804688 52.035156 32.804688 Z M 52.035156 32.804688"/><path fill="#9CA3AF" d="M 63.601562 30.101562 C 63.476562 29.960938 63.296875 29.878906 63.109375 29.878906 L 58.554688 29.878906 C 58.296875 29.878906 58.066406 30.027344 57.960938 30.257812 L 57.148438 32.042969 L 55.121094 22.578125 C 54.769531 20.9375 53.460938 19.789062 51.9375 19.789062 L 49.117188 19.789062 L 49.117188 18.488281 C 49.117188 18.128906 48.824219 17.835938 48.464844 17.835938 C 48.105469 17.835938 47.8125 18.128906 47.8125 18.488281 L 47.8125 19.789062 L 22.109375 19.789062 C 20.660156 19.789062 19.371094 20.863281 18.964844 22.402344 L 16.410156 32.171875 L 15.539062 30.257812 C 15.433594 30.027344 15.203125 29.878906 14.945312 29.878906 L 10.390625 29.878906 C 10.203125 29.878906 10.023438 29.960938 9.898438 30.101562 C 9.777344 30.246094 9.71875 30.433594 9.746094 30.621094 L 10.722656 37.453125 C 10.769531 37.773438 11.042969 38.011719 11.367188 38.011719 L 62.132812 38.011719 C 62.457031 38.011719 62.730469 37.773438 62.777344 37.453125 L 63.753906 30.621094 C 63.78125 30.433594 63.722656 30.246094 63.601562 30.101562 Z M 17.226562 34.757812 L 56.273438 34.757812 L 56.273438 36.710938 L 17.226562 36.710938 Z M 20.226562 22.734375 C 20.480469 21.765625 21.253906 21.089844 22.109375 21.089844 L 51.9375 21.089844 C 52.839844 21.089844 53.625 21.8125 53.847656 22.847656 L 56.121094 33.457031 L 17.417969 33.457031 Z M 11.140625 31.179688 L 14.527344 31.179688 L 15.921875 34.25 L 15.921875 36.710938 L 11.933594 36.710938 Z M 61.566406 36.710938 L 57.578125 36.710938 L 57.578125 34.25 L 58.972656 31.179688 L 62.359375 31.179688 Z M 61.566406 36.710938"/><path fill="#F87171" d="M 26.175781 52.347656 L 26.175781 54.449219 C 26.660156 55.019531 27.15625 55.574219 27.652344 56.121094 L 27.652344 52.480469 Z M 26.175781 52.347656"/><path fill="#F87171" d="M 40.273438 40.613281 C 40.300781 40.640625 40.320312 40.671875 40.335938 40.707031 L 43.265625 47.542969 L 54.324219 42.65625 L 54.324219 39.964844 L 39.667969 39.964844 Z M 40.273438 40.613281"/><path fill="#F87171" d="M 27.308594 49.488281 C 27.308594 49.582031 27.269531 49.671875 27.199219 49.734375 L 26.175781 50.628906 L 26.175781 51.695312 L 27.652344 51.828125 L 27.652344 47.769531 L 27.308594 47.394531 Z M 27.308594 49.488281"/><path fill="#F87171" d="M 25.523438 53.667969 L 25.523438 52.289062 L 24.34375 52.183594 C 24.464844 52.339844 24.585938 52.496094 24.710938 52.65625 C 24.976562 52.996094 25.25 53.335938 25.523438 53.667969 Z M 25.523438 53.667969"/><path fill="#F87171" d="M 25.523438 50.480469 C 25.523438 50.386719 25.566406 50.296875 25.636719 50.234375 L 26.660156 49.339844 L 26.660156 44.664062 C 26.660156 44.636719 26.660156 44.613281 26.667969 44.585938 L 27.796875 39.964844 L 25.90625 39.964844 L 24.046875 42.226562 L 24.046875 51.503906 L 25.523438 51.636719 Z M 25.523438 50.480469"/><path fill="#F87171" d="M 23.035156 39.964844 L 23.792969 41.511719 L 25.066406 39.964844 Z M 23.035156 39.964844"/><path fill="#F87171" d="M 39.195312 41.585938 L 37.640625 39.964844 L 28.46875 39.964844 L 27.308594 44.703125 L 27.308594 46.429688 L 28.21875 47.425781 C 28.273438 47.484375 28.300781 47.5625 28.300781 47.644531 L 28.300781 51.789062 L 35.125 50.449219 L 42.011719 48.027344 Z M 39.195312 41.585938"/><path fill="#F87171" d="M 43.742188 48.660156 L 45.015625 51.628906 C 45.035156 51.671875 45.042969 51.714844 45.042969 51.757812 L 45.042969 55.164062 C 45.042969 55.195312 45.039062 55.230469 45.027344 55.261719 L 44.207031 57.859375 C 45.746094 56.277344 47.339844 54.507812 48.789062 52.65625 C 51.21875 49.550781 53.03125 46.84375 54.324219 44.730469 L 54.324219 43.9375 Z M 43.742188 48.660156"/><path fill="#F87171" d="M 54.972656 39.964844 L 54.972656 43.644531 C 56.332031 41.324219 56.925781 39.964844 56.925781 39.964844 Z M 54.972656 39.964844"/><path fill="#F87171" d="M 23.394531 43.765625 L 23.394531 42.1875 L 22.3125 39.964844 L 19.933594 39.964844 L 19.933594 43.683594 Z M 23.394531 43.765625"/><path fill="#F87171" d="M 32.457031 60.949219 C 34.925781 63.246094 36.75 64.699219 36.75 64.699219 C 36.75 64.699219 38.6875 63.15625 41.269531 60.738281 Z M 32.457031 60.949219"/><path fill="#F87171" d="M 19.28125 44.003906 L 19.28125 39.964844 L 16.574219 39.964844 C 16.574219 39.964844 17.386719 41.820312 19.28125 44.902344 Z M 19.28125 44.003906"/><path fill="#F87171" d="M 23.394531 50.9375 L 23.394531 44.414062 L 19.933594 44.335938 L 19.933594 45.9375 C 20.867188 47.398438 22.011719 49.082031 23.394531 50.9375 Z M 23.394531 50.9375"/><path fill="#F87171" d="M 42.128906 59.847656 L 43.675781 54.851562 L 43.125 50.570312 L 42.273438 48.625 L 35.539062 50.996094 L 35.539062 60.226562 L 41.265625 60.085938 Z M 42.128906 59.847656"/><path fill="#F87171" d="M 34.886719 51.160156 L 28.300781 52.449219 L 28.300781 56.824219 C 29.5 58.097656 30.6875 59.277344 31.78125 60.316406 L 34.886719 60.242188 Z M 34.886719 51.160156"/><g fill="#9CA3AF"><g><g><path d="M 11.910156 -11.339844 L 11.910156 -14.742188 L 0.566406 -14.742188 L 0.566406 0 L 11.910156 0 L 11.910156 -3.402344 L 5.105469 -3.402344 L 5.105469 -11.339844 Z M 11.910156 -5.671875 L 11.910156 -9.074219 L 6.238281 -9.074219 L 6.238281 -5.671875 Z M 11.910156 -5.671875" transform="translate(66.163 48.627)"/></g></g></g><g fill="#9CA3AF"><g><g><path d="M 5.105469 0 L 5.105469 -5.671875 L 7.371094 -5.671875 L 7.371094 1.132812 L 11.910156 0 L 11.910156 -14.742188 L 0.566406 -14.742188 L 0.566406 0 Z M 7.371094 -9.074219 L 5.105469 -9.074219 L 5.105469 -11.339844 L 7.371094 -11.339844 Z M 7.371094 -9.074219" transform="translate(79.893 48.627)"/></g></g></g><g fill="#9CA3AF"><g><g><path d="M 11.910156 -11.339844 L 11.910156 -14.742188 L 0.566406 -14.742188 L 0.566406 -5.671875 L 7.371094 -5.671875 L 7.371094 -3.402344 L 5.105469 -3.402344 L 5.105469 -4.535156 L 0.566406 -3.402344 L 0.566406 0 L 11.910156 0 L 11.910156 -9.074219 L 5.105469 -9.074219 L 5.105469 -11.339844 L 7.371094 -11.339844 L 7.371094 -10.207031 Z M 11.910156 -11.339844" transform="translate(93.622 48.627)"/></g></g></g><g fill="#9CA3AF"><g><g><path d="M 11.910156 -14.742188 L 7.371094 -14.742188 L 7.371094 -9.074219 L 5.105469 -9.074219 L 5.105469 -14.742188 L 0.566406 -14.742188 L 0.566406 -5.671875 L 7.371094 -5.671875 L 7.371094 -3.96875 L 0.566406 -3.96875 L 0.566406 0 L 11.910156 0 Z M 11.910156 -14.742188" transform="translate(107.352 48.627)"/></g></g></g><g fill="#9CA3AF"><g><g><path d="M 11.910156 -10.207031 L 11.910156 -14.742188 L 0.566406 -14.742188 L 0.566406 0 L 11.910156 0 L 11.910156 -5.671875 L 7.371094 -4.535156 L 7.371094 -3.402344 L 5.105469 -3.402344 L 5.105469 -11.339844 L 7.371094 -11.339844 L 7.371094 -9.074219 Z M 11.910156 -10.207031" transform="translate(121.081 48.627)"/></g></g></g><g fill="#9CA3AF"><g><g><path d="M 5.105469 0 L 5.105469 -5.671875 L 7.371094 -5.671875 L 7.371094 1.132812 L 11.910156 0 L 11.910156 -14.742188 L 0.566406 -14.742188 L 0.566406 0 Z M 7.371094 -9.074219 L 5.105469 -9.074219 L 5.105469 -11.339844 L 7.371094 -11.339844 Z M 7.371094 -9.074219" transform="translate(134.81 48.627)"/></g></g></g><g fill="#9CA3AF"><g><g><path d="M 11.910156 0 L 11.910156 -7.371094 L 7.371094 -7.371094 L 11.910156 -8.507812 L 11.910156 -14.742188 L 0.566406 -14.742188 L 0.566406 0 L 5.105469 0 L 5.105469 -5.671875 L 7.371094 -5.671875 L 7.371094 1.132812 Z M 7.371094 -9.074219 L 5.105469 -9.074219 L 5.105469 -11.339844 L 7.371094 -11.339844 Z M 7.371094 -9.074219" transform="translate(148.54 48.627)"/></g></g></g><g fill="#9CA3AF"><g><g><path d="M 11.910156 -11.339844 L 11.910156 -14.742188 L 0.566406 -14.742188 L 0.566406 -5.671875 L 7.371094 -5.671875 L 7.371094 -3.402344 L 5.105469 -3.402344 L 5.105469 -4.535156 L 0.566406 -3.402344 L 0.566406 0 L 11.910156 0 L 11.910156 -9.074219 L 5.105469 -9.074219 L 5.105469 -11.339844 L 7.371094 -11.339844 L 7.371094 -10.207031 Z M 11.910156 -11.339844" transform="translate(162.27 48.627)"/></g></g></g></svg>